<?xml version="1.0" encoding="UTF-8" standalone="no"?>
<!-- Generator: Adobe Illustrator 27.5.0, SVG Export Plug-In . SVG Version: 6.00 Build 0)  -->

<svg
   version="1.1"
   x="0px"
   y="0px"
   viewBox="0 0 665.49202 665.49202"
   xml:space="preserve"
   id="svg35"
   sodipodi:docname="cohete.svg"
   inkscape:version="1.1.2 (0a00cf5339, 2022-02-04)"
   width="176.07809mm"
   height="176.07809mm"
   xmlns:inkscape="http://www.inkscape.org/namespaces/inkscape"
   xmlns:sodipodi="http://sodipodi.sourceforge.net/DTD/sodipodi-0.dtd"
   xmlns:xlink="http://www.w3.org/1999/xlink"
   xmlns="http://www.w3.org/2000/svg"
   xmlns:svg="http://www.w3.org/2000/svg"><defs
   id="defs39" /><sodipodi:namedview
   id="namedview37"
   pagecolor="#ffffff"
   bordercolor="#666666"
   borderopacity="1.0"
   inkscape:pageshadow="2"
   inkscape:pageopacity="0.0"
   inkscape:pagecheckerboard="0"
   showgrid="false"
   inkscape:zoom="0.56862745"
   inkscape:cx="26.37931"
   inkscape:cy="220.7069"
   inkscape:window-width="1920"
   inkscape:window-height="1027"
   inkscape:window-x="0"
   inkscape:window-y="22"
   inkscape:window-maximized="1"
   inkscape:current-layer="Object"
   units="mm"
   fit-margin-top="0"
   fit-margin-left="0"
   fit-margin-right="0"
   fit-margin-bottom="0"
   inkscape:document-units="mm" />

<g
   id="Object"
   transform="translate(-236.68268,-205.03986)"
   style="stroke-width:0;stroke-miterlimit:10;stroke-dasharray:none">
	<g
   id="XMLID_622_"
   style="stroke-width:0;stroke-miterlimit:10;stroke-dasharray:none;stroke:none;paint-order:stroke fill markers"
   transform="translate(-0.101346,-34.021141)">
		<g
   id="XMLID_631_"
   style="stroke-width:0;stroke-miterlimit:10;stroke-dasharray:none;stroke:none;paint-order:stroke fill markers">
			<defs
   id="defs5">
				<circle
   id="XMLID_632_"
   cx="569.53003"
   cy="571.80701"
   r="332.746" />
			</defs>
			<use
   xlink:href="#XMLID_632_"
   style="overflow:visible;fill:#d97706;fill-opacity:1;stroke-width:0;stroke-miterlimit:10;stroke-dasharray:none;stroke:none;paint-order:stroke fill markers"
   id="use7"
   x="0"
   y="0"
   width="100%"
   height="100%" />
			<clipPath
   id="XMLID_00000011743636038066545060000007305768899004922271_">
				<use
   xlink:href="#XMLID_632_"
   style="overflow:visible"
   id="use9"
   x="0"
   y="0"
   width="100%"
   height="100%" />
			</clipPath>
			
				<circle
   id="XMLID_644_"
   style="fill:none;stroke-width:0;stroke-miterlimit:10;stroke-dasharray:none;stroke:none;paint-order:stroke fill markers"
   cx="569.53003"
   cy="571.80701"
   r="332.746"
   clip-path="url(#XMLID_00000011743636038066545060000007305768899004922271_)" />
			
				<circle
   id="XMLID_643_"
   style="fill:#075985;fill-opacity:1;stroke-width:0;stroke-miterlimit:10;stroke-dasharray:none;stroke:none;paint-order:stroke fill markers"
   cx="573.11603"
   cy="787.84998"
   r="232.66"
   clip-path="url(#XMLID_00000011743636038066545060000007305768899004922271_)" />
			<path
   id="XMLID_642_"
   style="fill:#f6f2ef;fill-opacity:1;stroke-width:0;stroke-miterlimit:10;stroke-dasharray:none;stroke:none;paint-order:stroke fill markers"
   d="m 641.822,600.129 c 0,0 -24.213,17.046 -20.569,45.054 3.643,28.008 46.813,31.389 53.611,61.04 6.798,29.651 -34.369,54.314 -6.357,85.132 28.012,30.819 139.132,78.74 156.429,11.681 C 842.232,735.978 720.294,525.719 641.822,600.129 Z"
   clip-path="url(#XMLID_00000011743636038066545060000007305768899004922271_)" />
			<path
   id="XMLID_641_"
   style="fill:#f6f2ef;fill-opacity:1;stroke-width:0;stroke-miterlimit:10;stroke-dasharray:none;stroke:none;paint-order:stroke fill markers"
   d="m 340.668,782.224 c 0,0 -3.52,-141.597 132.692,-205.127 0,0 33.033,-21.224 61.095,14.211 28.062,35.436 -46.01,40.433 -53.356,56.555 -7.345,16.121 42.406,43.526 15.509,86.263 -26.897,42.737 -52.864,18.864 -63.7,61.924 -10.836,43.06 10.701,140.666 -61.704,106.562 10e-4,0 -35.973,-54.91 -30.536,-120.388 z"
   clip-path="url(#XMLID_00000011743636038066545060000007305768899004922271_)" />
			<path
   id="XMLID_640_"
   style="fill:#f6f2ef;fill-opacity:1;stroke-width:0;stroke-miterlimit:10;stroke-dasharray:none;stroke:none;paint-order:stroke fill markers"
   d="m 733.029,868.774 c -11.797,-7.808 -25.01,-11.723 -38.281,-12.831 -13.501,-1.127 -27.339,0.646 -40.746,4.23 -14.237,3.806 -28.466,9.92 -42.926,7.569 -15.98,-2.598 -30.51,-13.152 -46.322,-16.994 -14.671,-3.565 -29.656,-0.359 -43.559,8.078 -28.962,17.573 -85.946,69.089 -97.096,107.718 -9.479,7.406 8.541,15.344 12.456,29.553 5.365,19.469 37.119,19.368 51.034,21.87 14.635,2.631 29.398,4.398 44.201,5.347 29.808,1.911 59.972,0.226 89.757,-5.936 27.99,-5.791 56.734,-15.248 82.786,-31.674 11.546,-7.28 22.888,-16.567 32.266,-28.474 9.457,-12.006 19.973,-29.229 21.35,-47.068 1.634,-21.187 -12.858,-33.404 -24.92,-41.388 z"
   clip-path="url(#XMLID_00000011743636038066545060000007305768899004922271_)" />
			
				<circle
   id="XMLID_639_"
   style="fill:none;stroke-width:0;stroke-miterlimit:10;stroke-dasharray:none;stroke:none;paint-order:stroke fill markers"
   cx="569.53003"
   cy="571.80701"
   r="332.746"
   clip-path="url(#XMLID_00000011743636038066545060000007305768899004922271_)" />
			
				<path
   id="XMLID_638_"
   style="fill:#b2b2b2;stroke:none;stroke-width:0;stroke-miterlimit:10;stroke-dasharray:none;paint-order:stroke fill markers"
   d="m 562.17,593.887 c -20.438,24.11 -46.659,42.684 -75.342,55.741 -32.029,14.58 -67,22.107 -101.957,24.992 -20.363,1.68 -41.171,2.347 -61.278,-1.883 -2.773,-0.583 -3.958,3.673 -1.174,4.259 18.223,3.834 36.923,3.769 55.424,2.56 18.116,-1.184 36.183,-3.533 53.932,-7.372 33.241,-7.19 65.512,-19.849 93.573,-39.243 14.783,-10.217 28.318,-22.215 39.944,-35.93 1.828,-2.157 -1.281,-5.296 -3.122,-3.124 z"
   clip-path="url(#XMLID_00000011743636038066545060000007305768899004922271_)" />
			
				<path
   id="XMLID_637_"
   style="fill:#b2b2b2;stroke:none;stroke-width:0;stroke-miterlimit:10;stroke-dasharray:none;paint-order:stroke fill markers"
   d="m 610.024,631.671 c -11.397,17.657 -27.083,32.163 -44.87,43.245 -19.86,12.373 -42.268,20.35 -65.068,25.266 -13.281,2.863 -26.942,5.096 -40.563,4.04 -1.878,-0.146 -2.293,2.763 -0.407,2.909 12.345,0.957 24.669,-0.698 36.763,-3.089 11.842,-2.342 23.551,-5.448 34.923,-9.509 21.297,-7.606 41.482,-18.733 58.311,-33.939 8.866,-8.01 16.755,-17.087 23.239,-27.132 1.02,-1.581 -1.301,-3.382 -2.328,-1.791 z"
   clip-path="url(#XMLID_00000011743636038066545060000007305768899004922271_)" />
			
				<path
   id="XMLID_636_"
   style="fill:#18181b;fill-opacity:1;stroke:none;stroke-width:0;stroke-miterlimit:10;stroke-dasharray:none;paint-order:stroke fill markers"
   d="m 768.603,663.48 c -6.435,7.591 -14.69,13.439 -23.721,17.549 -10.084,4.59 -21.094,6.96 -32.1,7.869 -6.411,0.529 -12.962,0.739 -19.293,-0.593 -0.873,-0.184 -1.246,1.156 -0.37,1.341 5.737,1.207 11.625,1.187 17.45,0.806 5.704,-0.373 11.392,-1.112 16.98,-2.321 10.466,-2.264 20.626,-6.249 29.461,-12.355 4.654,-3.217 8.916,-6.994 12.576,-11.312 0.576,-0.68 -0.403,-1.668 -0.983,-0.984 z"
   clip-path="url(#XMLID_00000011743636038066545060000007305768899004922271_)" />
			
				<path
   id="XMLID_635_"
   style="fill:#18181b;fill-opacity:1;stroke:none;stroke-width:0;stroke-miterlimit:10;stroke-dasharray:none;paint-order:stroke fill markers"
   d="m 763.309,690.77 c -6.435,7.591 -14.69,13.439 -23.721,17.549 -10.084,4.59 -21.094,6.96 -32.1,7.869 -6.411,0.529 -12.962,0.739 -19.292,-0.593 -0.873,-0.184 -1.246,1.156 -0.37,1.341 5.737,1.207 11.625,1.187 17.45,0.806 5.703,-0.373 11.392,-1.112 16.98,-2.321 10.466,-2.264 20.626,-6.249 29.461,-12.355 4.654,-3.217 8.916,-6.994 12.576,-11.312 0.575,-0.679 -0.404,-1.668 -0.984,-0.984 z"
   clip-path="url(#XMLID_00000011743636038066545060000007305768899004922271_)" />
			
				<path
   id="XMLID_634_"
   style="fill:#18181b;fill-opacity:1;stroke:none;stroke-width:0;stroke-miterlimit:10;stroke-dasharray:none;paint-order:stroke fill markers"
   d="m 493.154,554.292 c -4.53,-8.86 -6.751,-18.73 -7.07,-28.648 -0.357,-11.074 1.693,-22.148 5.09,-32.656 1.979,-6.121 4.306,-12.248 7.971,-17.579 0.505,-0.735 -0.588,-1.595 -1.095,-0.857 -3.322,4.831 -5.568,10.273 -7.459,15.796 -1.851,5.408 -3.357,10.943 -4.392,16.566 -1.938,10.531 -2.169,21.442 0.067,31.947 1.178,5.534 3.025,10.92 5.602,15.961 0.405,0.792 1.694,0.268 1.286,-0.53 z"
   clip-path="url(#XMLID_00000011743636038066545060000007305768899004922271_)" />
			
				<path
   id="XMLID_633_"
   style="fill:#18181b;fill-opacity:1;stroke:none;stroke-width:0;stroke-miterlimit:10;stroke-dasharray:none;paint-order:stroke fill markers"
   d="m 470.002,538.904 c -4.53,-8.86 -6.751,-18.73 -7.07,-28.648 -0.357,-11.074 1.693,-22.148 5.09,-32.656 1.979,-6.121 4.306,-12.248 7.971,-17.579 0.505,-0.735 -0.588,-1.595 -1.095,-0.857 -3.322,4.831 -5.569,10.273 -7.459,15.796 -1.851,5.408 -3.357,10.943 -4.392,16.566 -1.938,10.531 -2.169,21.442 0.067,31.946 1.178,5.534 3.025,10.92 5.602,15.961 0.405,0.793 1.694,0.27 1.286,-0.529 z"
   clip-path="url(#XMLID_00000011743636038066545060000007305768899004922271_)" />
		</g>
		<g
   id="XMLID_623_"
   style="stroke-width:0;stroke-miterlimit:10;stroke-dasharray:none;stroke:none;paint-order:stroke fill markers">
			<path
   id="XMLID_630_"
   style="fill:#124460;stroke-width:0;stroke-miterlimit:10;stroke-dasharray:none;stroke:none;paint-order:stroke fill markers"
   d="m 819.444,506.987 c 126.462,-126.541 35.848,-200.033 35.848,-200.033 0,0 -93.196,-76.31 -189.875,77.615 -15.579,-5.421 -68.477,-21.7 -85.157,0.757 -19.642,26.445 -52.627,124.079 -47.443,134.535 3.918,7.902 53.663,-10.866 77.727,-20.504 -1.729,4.606 -3.453,9.306 -5.172,14.105 l -3.213,-2.541 c -2.579,-2.039 -6.656,-1.22 -9.06,1.82 l -14.445,18.267 c -2.404,3.04 -2.261,7.196 0.318,9.235 l 105.495,83.423 c 2.579,2.039 6.656,1.22 9.06,-1.82 l 14.445,-18.267 c 2.404,-3.04 2.261,-7.196 -0.318,-9.235 l -0.317,-0.251 c 4.156,-2.653 8.218,-5.289 12.194,-7.911 -3.846,25.842 -10.477,77.811 -1.949,79.787 11.368,2.634 98.77,-51.968 119.975,-77.177 17.506,-20.813 -8.505,-66.499 -18.113,-81.805 z" />
			<path
   id="XMLID_629_"
   style="fill:#ce5840;stroke-width:0;stroke-miterlimit:10;stroke-dasharray:none;stroke:none;paint-order:stroke fill markers"
   d="m 767.511,292.512 c 0,0 26.733,89.13 118.849,95.579 0,0 17.213,-79.568 -8.479,-103.695 -27.096,-25.446 -110.37,8.116 -110.37,8.116 z" />
			<path
   id="XMLID_628_"
   style="fill:#808284;stroke-width:0;stroke-miterlimit:10;stroke-dasharray:none;stroke:none;paint-order:stroke fill markers"
   d="m 689.085,631.448 -117.744,-93.11 c -1.636,-1.294 -1.916,-3.69 -0.622,-5.326 l 5.35,-6.765 c 1.294,-1.636 3.69,-1.916 5.326,-0.622 l 117.744,93.11 c 1.636,1.294 1.916,3.69 0.622,5.326 l -5.35,6.765 c -1.294,1.635 -3.69,1.915 -5.326,0.622 z" />
			<g
   id="XMLID_625_"
   style="stroke-width:0;stroke-miterlimit:10;stroke-dasharray:none;stroke:none;paint-order:stroke fill markers">
				<circle
   id="XMLID_627_"
   style="fill:#848484;stroke-width:0;stroke-miterlimit:10;stroke-dasharray:none;stroke:none;paint-order:stroke fill markers"
   cx="756.29797"
   cy="444.23099"
   r="60.452999" />
				
					<circle
   id="XMLID_626_"
   style="fill:#f6f2ef;fill-opacity:1;stroke:none;stroke-width:0;stroke-miterlimit:10;stroke-dasharray:none;paint-order:stroke fill markers"
   cx="748.48602"
   cy="437.57901"
   r="60.452999" />
			</g>
			<path
   id="XMLID_624_"
   style="fill:#808284;stroke-width:0;stroke-miterlimit:10;stroke-dasharray:none;stroke:none;paint-order:stroke fill markers"
   d="m 654.531,624.973 -75.034,-59.335 c -1.636,-1.294 -1.916,-3.69 -0.622,-5.326 l 9.764,-12.347 c 1.294,-1.636 3.69,-1.916 5.326,-0.622 l 75.034,59.335 c 1.636,1.294 1.916,3.69 0.622,5.326 l -9.764,12.347 c -1.294,1.636 -3.691,1.916 -5.326,0.622 z" />
		</g>
	</g>
</g>
</svg>
