<?xml version="1.0" encoding="UTF-8" standalone="no"?>
<!-- Created with Inkscape (http://www.inkscape.org/) -->

<svg
   width="158.80278mm"
   height="56.832474mm"
   viewBox="0 0 158.80278 56.832474"
   version="1.1"
   id="svg5"
   sodipodi:docname="miriam-name.svg"
   inkscape:version="1.1.2 (0a00cf5339, 2022-02-04)"
   xmlns:inkscape="http://www.inkscape.org/namespaces/inkscape"
   xmlns:sodipodi="http://sodipodi.sourceforge.net/DTD/sodipodi-0.dtd"
   xmlns:xlink="http://www.w3.org/1999/xlink"
   xmlns="http://www.w3.org/2000/svg"
   xmlns:svg="http://www.w3.org/2000/svg">
  <sodipodi:namedview
     id="namedview7"
     pagecolor="#ffffff"
     bordercolor="#666666"
     borderopacity="1.0"
     inkscape:pageshadow="2"
     inkscape:pageopacity="0.0"
     inkscape:pagecheckerboard="0"
     inkscape:document-units="mm"
     showgrid="false"
     inkscape:zoom="0.40189418"
     inkscape:cx="-447.87909"
     inkscape:cy="-488.93468"
     inkscape:window-width="1920"
     inkscape:window-height="1027"
     inkscape:window-x="0"
     inkscape:window-y="22"
     inkscape:window-maximized="1"
     inkscape:current-layer="layer1"
     fit-margin-top="0"
     fit-margin-left="0"
     fit-margin-right="0"
     fit-margin-bottom="0" />
  <defs
     id="defs2">
    <linearGradient
       inkscape:collect="always"
       id="linearGradient42141">
      <stop
         style="stop-color:#000000;stop-opacity:1;"
         offset="0"
         id="stop42137" />
      <stop
         style="stop-color:#000000;stop-opacity:0;"
         offset="1"
         id="stop42139" />
    </linearGradient>
    <linearGradient
       inkscape:collect="always"
       xlink:href="#linearGradient42141"
       id="linearGradient42143"
       x1="39.921581"
       y1="137.56398"
       x2="167.02289"
       y2="137.56398"
       gradientUnits="userSpaceOnUse" />
  </defs>
  <g
     inkscape:label="Layer 1"
     inkscape:groupmode="layer"
     id="layer1"
     transform="translate(-28.200922,-121.44028)">
    <text
       xml:space="preserve"
       style="font-size:45.3125px;line-height:1.25;font-family:Babylonica;-inkscape-font-specification:Babylonica;fill:#b45309;fill-opacity:1;stroke-width:1.13281"
       x="39.423145"
       y="146.13559"
       id="text3356"><tspan
         sodipodi:role="line"
         id="tspan3354"
         style="fill:#b45309;fill-opacity:1;stroke-width:1.13281"
         x="39.423145"
         y="146.13559">Míriam</tspan></text>
    <path
       d="m 186.25874,149.02848 c -1.35018,-0.42886 -2.53009,-1.20754 -10.06616,-1.13641 -2.57609,0.0358 -5.1525,0.037 -7.72673,0.0898 -19.14404,0.83351 -20.7556,1.21271 -34.74216,2.6063 -7.47107,0.86428 -14.88904,2.14053 -22.31404,3.32452 -5.22242,0.90939 -10.41077,2.01823 -15.61131,3.04497 -27.886691,6.19935 -18.222749,3.81543 -37.499298,9.00479 -8.236668,2.62832 -16.423143,5.42324 -24.643015,8.10745 -1.209565,0.49178 -2.451009,0.91414 -3.631129,1.4746 -1.304909,0.6252 -1.359174,0.61863 -1.523461,0.83234 -0.780233,0.805 0.06448,2.31358 1.322115,1.78676 3.618002,-1.73201 3.444359,-1.59746 19.347592,-6.84 0.565465,0.41732 0.882925,0.23429 2.123596,-0.0159 1.470302,-0.29656 2.942784,-0.58072 4.406621,-0.90733 5.915143,-1.48422 11.775087,-3.18957 17.676603,-4.73142 2.035307,-0.50943 4.058098,-1.07668 6.087869,-1.61745 2.575431,-0.58864 5.152588,-1.17411 7.730129,-1.75735 13.422678,-2.61929 9.505398,-2.03962 26.239078,-4.8083 2.64144,-0.35209 0.1722,-0.0512 14.21077,-1.71254 10.99104,-0.91549 23.04532,-0.84354 33.98396,-0.67618 4.73176,0.0777 13.51981,0.29112 18.22594,1.02788 0.44729,0.0422 0.92161,-0.1939 1.10583,-0.60853 0.28136,-0.47911 0.10607,-1.1385 -0.34687,-1.45448 -0.42552,-0.28505 -0.97927,-0.22422 -1.46396,-0.32796 -2.11843,-0.30129 -5.18606,-0.48001 -7.45521,-0.59539 l 2.99345,-0.14988 c 2.63897,-0.10461 5.25855,-0.47594 7.89606,-0.61492 1.22803,-0.106 2.88267,-0.30002 3.75759,-1.17023 0.22257,-0.21708 0.48973,-0.40393 0.59105,-0.71273 0.21825,-0.5684 -0.0921,-1.2605 -0.67231,-1.46052 z m -55.46414,4.20556 c 4.24148,-0.58727 17.45368,-1.82914 22.3092,-2.21429 5.25302,-0.29141 10.50513,-0.58151 15.76205,-0.79857 2.80908,0.0547 8.52045,-0.21029 11.74614,0.0202 -1.35158,0.10588 -2.7,0.2493 -4.05152,0.36209 -15.25516,0.85799 -30.521,1.57702 -45.76587,2.6306 z"
       id="path38398"
       style="fill:#b45309;fill-opacity:1;stroke-width:0.113682" />
  </g>
</svg>
